<?xml version="1.0" encoding="UTF-8"?>
<svg width="32px" height="32px" viewBox="0 0 32 32" version="1.1" xmlns="http://www.w3.org/2000/svg" xmlns:xlink="http://www.w3.org/1999/xlink">
    <!-- Generator: sketchtool 61.2 (101010) - https://sketch.com -->
    <title>18AE3ED9-BF35-441C-8141-97CFAAE8F475</title>
    <desc>Created with sketchtool.</desc>
    <g id="Welcome" stroke="none" stroke-width="1" fill="none" fill-rule="evenodd">
        <g id="variação3" transform="translate(-996.000000, -6048.000000)" fill="#FFFFFF" fill-rule="nonzero">
            <g id="Group-22" transform="translate(335.000000, 5407.000000)">
                <g id="Group-4" transform="translate(637.000000, 617.000000)">
                    <g id="Ícone/-sucesso-branco/-32" transform="translate(24.000000, 24.000000)">
                        <g id="verified-(1)">
                            <path d="M27.3136875,4.68625 C24.2916875,1.6643125 20.27375,0 16,0 C11.7261875,0 7.7081875,1.6643125 4.68625,4.68625 C1.66425,7.70825 0,11.72625 0,16 C0,20.27375 1.66425,24.2916875 4.68625,27.3136875 C7.70825,30.3356875 11.7261875,32 16,32 C20.27375,32 24.2916875,30.3356875 27.3136875,27.3136875 C30.3356875,24.2916875 32,20.27375 32,16 C32,11.72625 30.3356875,7.7083125 27.3136875,4.68625 Z M16,30.125 C8.2114375,30.125 1.875,23.7885625 1.875,16 C1.875,8.2114375 8.2114375,1.875 16,1.875 C23.7885625,1.875 30.125,8.2114375 30.125,16 C30.125,23.7885625 23.7885625,30.125 16,30.125 Z" id="Shape"></path>
                            <path d="M23.7225866,10.9373567 C23.3527652,10.5764264 22.7530446,10.5764264 22.3832232,10.9374183 L14.0195266,19.1014329 L9.61683991,14.8038598 C9.24701852,14.4428678 8.64729793,14.4428678 8.2774134,14.8038598 C7.90752887,15.1648517 7.90752887,15.7502541 8.2774134,16.1113077 L13.3497818,21.062574 C13.534724,21.2431008 13.7771253,21.3333333 14.0194635,21.3333333 C14.2618016,21.3333333 14.504266,21.2430391 14.6891451,21.062574 L23.7225866,12.2448046 C24.0924711,11.8838126 24.0924711,11.2984103 23.7225866,10.9373567 Z" id="Path"></path>
                        </g>
                    </g>
                </g>
            </g>
        </g>
    </g>
</svg>